<mxfile host="app.diagrams.net" modified="2023-07-17T23:31:19.376Z" agent="Mozilla/5.0 (Macintosh; Intel Mac OS X 10_15_7) AppleWebKit/537.36 (KHTML, like Gecko) Chrome/114.0.0.0 Safari/537.36" etag="e40fwQVBZS8TAfvdq943" version="21.6.2" type="device">
  <diagram name="Página-1" id="1VJqxFH21dtAoR-6h5rd">
    <mxGraphModel dx="1147" dy="724" grid="1" gridSize="10" guides="1" tooltips="1" connect="1" arrows="1" fold="1" page="1" pageScale="1" pageWidth="827" pageHeight="1169" math="0" shadow="0">
      <root>
        <mxCell id="0" />
        <mxCell id="1" parent="0" />
        <mxCell id="0DfCrH6xnf_dvjgttEq8-4" value="Fluxo de atividades de uma corretora" style="swimlane;whiteSpace=wrap;html=1;" vertex="1" parent="1">
          <mxGeometry x="30" y="30" width="340" height="300" as="geometry" />
        </mxCell>
        <mxCell id="0DfCrH6xnf_dvjgttEq8-5" value="Pesquisa e análise" style="rounded=1;whiteSpace=wrap;html=1;" vertex="1" parent="0DfCrH6xnf_dvjgttEq8-4">
          <mxGeometry x="20" y="50" width="130" height="60" as="geometry" />
        </mxCell>
      </root>
    </mxGraphModel>
  </diagram>
</mxfile>
